<svg xmlns="http://www.w3.org/2000/svg" width="34.176" height="25.632" viewBox="0 0 34.176 25.632"><path d="M33.528,72.464a.4.4,0,0,1,.647.314v13.65a3.2,3.2,0,0,1-3.2,3.2H3.2a3.2,3.2,0,0,1-3.2-3.2V72.784a.4.4,0,0,1,.647-.314c1.5,1.161,3.478,2.637,10.286,7.583,1.408,1.028,3.785,3.191,6.154,3.177,2.383.02,4.806-2.189,6.161-3.177C30.057,75.107,32.033,73.625,33.528,72.464Zm-16.44,8.624c1.549.027,3.778-1.949,4.9-2.763,8.858-6.428,9.532-6.989,11.574-8.591a1.6,1.6,0,0,0,.614-1.262V67.2a3.2,3.2,0,0,0-3.2-3.2H3.2A3.2,3.2,0,0,0,0,67.2v1.268a1.607,1.607,0,0,0,.614,1.262c2.043,1.6,2.717,2.163,11.574,8.591C13.31,79.139,15.539,81.115,17.088,81.088Z" transform="translate(0 -64)" fill="#fff"/></svg>